<svg xmlns="http://www.w3.org/2000/svg" width="34" height="27" viewBox="0 0 34 27" fill="none">
<path d="M27.4329 11.1711C27.7766 10.943 28.2266 10.943 28.5704 11.1711L29.1266 11.5367C29.3141 11.6586 29.5329 11.718 29.7547 11.7055L30.4204 11.6648C30.8329 11.6398 31.2204 11.8648 31.4047 12.2336L31.7047 12.8305C31.8047 13.0305 31.9672 13.1898 32.1641 13.2898L32.7672 13.593C33.136 13.7773 33.361 14.1648 33.336 14.5773L33.2954 15.243C33.2829 15.4648 33.3422 15.6867 33.4641 15.8711L33.8329 16.4273C34.061 16.7711 34.061 17.2211 33.8329 17.5648L33.4641 18.1242C33.3422 18.3117 33.2829 18.5305 33.2954 18.7523L33.336 19.418C33.361 19.8305 33.136 20.218 32.7672 20.4023L32.1704 20.7023C31.9704 20.8023 31.811 20.9648 31.711 21.1617L31.4079 21.7648C31.2235 22.1336 30.836 22.3586 30.4235 22.3336L29.7579 22.293C29.536 22.2805 29.3141 22.3398 29.1297 22.4617L28.5735 22.8305C28.2297 23.0586 27.7797 23.0586 27.436 22.8305L26.8766 22.4617C26.6891 22.3398 26.4704 22.2805 26.2485 22.293L25.5829 22.3336C25.1704 22.3586 24.7829 22.1336 24.5985 21.7648L24.2985 21.168C24.1985 20.968 24.036 20.8086 23.8391 20.7086L23.236 20.4055C22.8672 20.2211 22.6422 19.8336 22.6672 19.4211L22.7079 18.7555C22.7204 18.5336 22.661 18.3117 22.5391 18.1273L22.1735 17.568C21.9454 17.2242 21.9454 16.7742 22.1735 16.4305L22.5391 15.8742C22.661 15.6867 22.7204 15.468 22.7079 15.2461L22.6672 14.5805C22.6422 14.168 22.8672 13.7805 23.236 13.5961L23.8329 13.2961C24.0329 13.193 24.1954 13.0305 24.2954 12.8305L24.5954 12.2336C24.7797 11.8648 25.1672 11.6398 25.5797 11.6648L26.2454 11.7055C26.4672 11.718 26.6891 11.6586 26.8735 11.5367L27.4329 11.1711ZM30.5016 16.9992C30.5016 16.3362 30.2382 15.7003 29.7694 15.2315C29.3005 14.7626 28.6647 14.4992 28.0016 14.4992C27.3386 14.4992 26.7027 14.7626 26.2338 15.2315C25.765 15.7003 25.5016 16.3362 25.5016 16.9992C25.5016 17.6623 25.765 18.2981 26.2338 18.767C26.7027 19.2358 27.3386 19.4992 28.0016 19.4992C28.6647 19.4992 29.3005 19.2358 29.7694 18.767C30.2382 18.2981 30.5016 17.6623 30.5016 16.9992ZM22.0422 24.8055L23.3891 21.6023C23.3954 21.6055 23.3985 21.6086 23.4016 21.6148L23.7016 22.2117C24.0672 22.9367 24.8266 23.3773 25.6391 23.3305L26.3047 23.2898C26.311 23.2898 26.3204 23.2898 26.3266 23.2961L26.8829 23.6648C27.0422 23.768 27.211 23.8492 27.386 23.9055L26.211 26.6961C26.1391 26.868 25.9797 26.9836 25.7954 26.9992C25.611 27.0148 25.4329 26.9305 25.3329 26.7742L24.3266 25.2336L22.5735 25.493C22.3954 25.518 22.2172 25.4461 22.1047 25.3055C21.9922 25.1648 21.9704 24.9711 22.0391 24.8055H22.0422ZM29.7922 26.693L28.6172 23.9055C28.7922 23.8492 28.961 23.7711 29.1204 23.6648L29.6766 23.2961C29.6829 23.293 29.6891 23.2898 29.6985 23.2898L30.3641 23.3305C31.1766 23.3773 31.936 22.9367 32.3016 22.2117L32.6016 21.6148C32.6047 21.6086 32.6079 21.6055 32.6141 21.6023L33.9641 24.8055C34.0329 24.9711 34.0079 25.1617 33.8985 25.3055C33.7891 25.4492 33.6079 25.5211 33.4297 25.493L31.6766 25.2336L30.6704 26.7711C30.5704 26.9273 30.3922 27.0117 30.2079 26.9961C30.0235 26.9805 29.8641 26.8617 29.7922 26.693Z" fill="black"/>
<path d="M1.45161 0C0.647177 0 0 0.647177 0 1.45161V4.35484C0 5.15927 0.647177 5.80645 1.45161 5.80645H4.35484C5.15927 5.80645 5.80645 5.15927 5.80645 4.35484V1.45161C5.80645 0.647177 5.15927 0 4.35484 0H1.45161ZM10.6452 0.967742C9.5746 0.967742 8.70968 1.83266 8.70968 2.90322C8.70968 3.97379 9.5746 4.83871 10.6452 4.83871H28.0645C29.1351 4.83871 30 3.97379 30 2.90322C30 1.83266 29.1351 0.967742 28.0645 0.967742H10.6452ZM10.6452 10.6452C9.5746 10.6452 8.70968 11.5101 8.70968 12.5806C8.70968 13.6512 9.5746 14.5161 10.6452 14.5161H20.5C21.5706 14.5161 22.5 13.6512 22.5 12.5806C22.5 11.5101 21.5706 10.6452 20.5 10.6452H10.6452ZM10.6452 20.3226C9.5746 20.3226 8.70968 21.1875 8.70968 22.2581C8.70968 23.3286 9.5746 24.1935 10.6452 24.1935H17.5C18.5706 24.1935 20 23.3286 20 22.2581C20 21.1875 18.5706 20.3226 17.5 20.3226H10.6452ZM0 11.129V14.0323C0 14.8367 0.647177 15.4839 1.45161 15.4839H4.35484C5.15927 15.4839 5.80645 14.8367 5.80645 14.0323V11.129C5.80645 10.3246 5.15927 9.67742 4.35484 9.67742H1.45161C0.647177 9.67742 0 10.3246 0 11.129ZM1.45161 19.3548C0.647177 19.3548 0 20.002 0 20.8064V23.7097C0 24.5141 0.647177 25.1613 1.45161 25.1613H4.35484C5.15927 25.1613 5.80645 24.5141 5.80645 23.7097V20.8064C5.80645 20.002 5.15927 19.3548 4.35484 19.3548H1.45161Z" fill="black"/>
</svg>